name Walk10.mot
datacolumns 19
datarows 20
range 2.41100000 2.43000000
endheader

                time	   L_ground_force_vx	   L_ground_force_vy	   L_ground_force_vz	   L_ground_force_px	   L_ground_force_py	   L_ground_force_pz	   R_ground_force_vx	   R_ground_force_vy	   R_ground_force_vz	   R_ground_force_px	   R_ground_force_py	   R_ground_force_pz	   L_ground_torque_x	   L_ground_torque_y	   L_ground_torque_z	   R_ground_torque_x	   R_ground_torque_y	   R_ground_torque_z	
          2.41100000	         -0.00000000	         -0.00000000	         -0.00000000	         -0.00000000	          0.00000000	         -0.00000000	         17.74796305	         70.80373954	         17.71093728	          0.49821017	          0.00000000	          0.12488763	          0.00000000	         -0.00000000	          0.00000000	          0.00000000	         -4.15092132	          0.00000000	
          2.41200000	         -0.00000000	         -0.00000000	         -0.00000000	         -0.00000000	          0.00000000	         -0.00000000	         16.65305975	         66.10339386	         17.10545289	          0.48891417	          0.00000000	          0.12244298	          0.00000000	         -0.00000000	          0.00000000	          0.00000000	         -3.90886060	          0.00000000	
          2.41300000	         -0.00000000	         -0.00000000	         -0.00000000	         -0.00000000	          0.00000000	         -0.00000000	         15.59043550	         61.58275832	         16.49525293	          0.47921015	          0.00000000	          0.11989989	          0.00000000	         -0.00000000	          0.00000000	          0.00000000	         -3.67353308	          0.00000000	
          2.41400000	         -0.00000000	         -0.00000000	         -0.00000000	         -0.00000000	          0.00000000	         -0.00000000	         14.56077296	         57.23950246	         15.88185308	          0.46910296	          0.00000000	          0.11725995	          0.00000000	         -0.00000000	          0.00000000	          0.00000000	         -3.44507956	          0.00000000	
          2.41500000	         -0.00000000	         -0.00000000	         -0.00000000	         -0.00000000	          0.00000000	         -0.00000000	         13.56467919	         53.07114502	         15.26674925	          0.45859972	          0.00000000	          0.11452534	          0.00000000	         -0.00000000	          0.00000000	          0.00000000	         -3.22362632	          0.00000000	
          2.41600000	         -0.00000000	         -0.00000000	         -0.00000000	         -0.00000000	          0.00000000	         -0.00000000	         12.60268121	         49.07507028	         14.65141160	          0.44770996	          0.00000000	          0.11169883	          0.00000000	         -0.00000000	          0.00000000	          0.00000000	         -3.00928422	          0.00000000	
          2.41700000	         -0.00000000	         -0.00000000	         -0.00000000	         -0.00000000	          0.00000000	         -0.00000000	         11.67522164	         45.24854451	         14.03727893	          0.43644584	          0.00000000	          0.10878385	          0.00000000	         -0.00000000	          0.00000000	          0.00000000	         -2.80214820	          0.00000000	
          2.41800000	         -0.00000000	         -0.00000000	         -0.00000000	         -0.00000000	          0.00000000	         -0.00000000	         10.78265435	         41.58873246	         13.42575391	          0.42482235	          0.00000000	          0.10578449	          0.00000000	         -0.00000000	          0.00000000	          0.00000000	         -2.60229682	          0.00000000	
          2.41900000	         -0.00000000	         -0.00000000	         -0.00000000	         -0.00000000	          0.00000000	         -0.00000000	          9.92524031	         38.09271441	         12.81819935	          0.41285747	          0.00000000	          0.10270557	          0.00000000	         -0.00000000	          0.00000000	          0.00000000	         -2.40979192	          0.00000000	
          2.42000000	         -0.00000000	         -0.00000000	         -0.00000000	         -0.00000000	          0.00000000	         -0.00000000	          9.10314364	         34.75750408	         12.21593580	          0.40057245	          0.00000000	          0.09955271	          0.00000000	         -0.00000000	          0.00000000	          0.00000000	         -2.22467815	          0.00000000	
          2.42100000	         -0.00000000	         -0.00000000	         -0.00000000	         -0.00000000	          0.00000000	         -0.00000000	          8.31642778	         31.58006746	         11.62024019	          0.38799196	          0.00000000	          0.09633236	          0.00000000	         -0.00000000	          0.00000000	          0.00000000	         -2.04698234	          0.00000000	
          2.42200000	         -0.00000000	         -0.00000000	         -0.00000000	         -0.00000000	          0.00000000	         -0.00000000	          7.56505202	         28.55734147	         11.03234505	          0.37514441	          0.00000000	          0.09305188	          0.00000000	         -0.00000000	          0.00000000	          0.00000000	         -1.87671295	          0.00000000	
          2.42300000	         -0.00000000	         -0.00000000	         -0.00000000	         -0.00000000	          0.00000000	         -0.00000000	          6.84886865	         25.68625033	         10.45343767	          0.36206216	          0.00000000	          0.08971961	          0.00000000	         -0.00000000	          0.00000000	          0.00000000	         -1.71385951	          0.00000000	
          2.42400000	         -0.00000000	         -0.00000000	          0.00000000	         -0.00000000	          0.00000000	         -0.00000000	          6.16762126	         22.96371639	          9.88465799	          0.34878188	          0.00000000	          0.08634488	          0.00000000	         -0.00000000	          0.00000000	          0.00000000	         -1.55839218	          0.00000000	
          2.42500000	         -0.00000000	         -0.00000000	          0.00000000	         -0.00000000	          0.00000000	         -0.00000000	          5.52094486	         20.38666171	          9.32709437	          0.33534479	          0.00000000	          0.08293811	          0.00000000	         -0.00000000	          0.00000000	          0.00000000	         -1.41026168	          0.00000000	
          2.42600000	         -0.00000000	         -0.00000000	          0.00000000	         -0.00000000	          0.00000000	         -0.00000000	          4.90836857	         17.95199707	          8.78177642	          0.32179705	          0.00000000	          0.07951077	          0.00000000	         -0.00000000	          0.00000000	          0.00000000	         -1.26939939	          0.00000000	
          2.42700000	         -0.00000000	         -0.00000000	          0.00000000	         -0.00000000	          0.00000000	         -0.00000000	          4.32932228	         15.65658883	          8.24966273	          0.30818938	          0.00000000	          0.07607533	          0.00000000	         -0.00000000	          0.00000000	          0.00000000	         -1.13571767	          0.00000000	
          2.42800000	         -0.00000000	         -0.00000000	          0.00000000	         -0.00000000	          0.00000000	         -0.00000000	          3.78314853	         13.49719516	          7.73162119	          0.29457472	          0.00000000	          0.07264465	          0.00000000	         -0.00000000	          0.00000000	          0.00000000	         -1.00911059	          0.00000000	
          2.42900000	         -0.00000000	         -0.00000000	          0.00000000	         -0.00000000	          0.00000000	         -0.00000000	          3.26911711	         11.47039937	          7.22840970	          0.28100450	          0.00000000	          0.06923116	          0.00000000	         -0.00000000	          0.00000000	          0.00000000	         -0.88945499	          0.00000000	
          2.43000000	         -0.00000000	         -0.00000000	          0.00000000	          0.00000000	          0.00000000	         -0.00000000	          2.78643754	          9.57258623	          6.74066887	          0.26752623	          0.00000000	          0.06584628	          0.00000000	         -0.00000000	          0.00000000	          0.00000000	         -0.77661195	          0.00000000	
